<svg width="40" height="40" viewBox="0 0 40 40" fill="none" xmlns="http://www.w3.org/2000/svg">
<g id="ic_email_24px">
<path id="icon/communication/email_24px" fill-rule="evenodd" clip-rule="evenodd" d="M6.66659 6.66666H33.3333C35.1666 6.66666 36.6666 8.16666 36.6666 9.99999V30C36.6666 31.8333 35.1666 33.3333 33.3333 33.3333H6.66659C4.83325 33.3333 3.33325 31.8333 3.33325 30L3.34992 9.99999C3.34992 8.16666 4.83325 6.66666 6.66659 6.66666ZM20.8833 21.1167L32.6666 13.75C33.0833 13.4834 33.3333 13.0334 33.3333 12.55C33.3333 11.4334 32.1166 10.7667 31.1666 11.35L19.9999 18.3334L8.83325 11.35C7.88325 10.7667 6.66659 11.4334 6.66659 12.55C6.66659 13.0334 6.91659 13.4834 7.33325 13.75L19.1166 21.1167C19.6499 21.45 20.3499 21.45 20.8833 21.1167Z" fill="#6A8DC3"/>
</g>
</svg>
