<?xml version="1.0" encoding="utf-8"?>
<!-- Svg Vector Icons : http://www.onlinewebfonts.com/icon -->
<!DOCTYPE svg PUBLIC "-//W3C//DTD SVG 1.1//EN" "http://www.w3.org/Graphics/SVG/1.1/DTD/svg11.dtd">
<svg version="1.1" xmlns="http://www.w3.org/2000/svg" xmlns:xlink="http://www.w3.org/1999/xlink" x="0px" y="0px" viewBox="0 0 1000 1000" enable-background="new 0 0 1000 1000" xml:space="preserve">
<metadata> Svg Vector Icons : http://www.onlinewebfonts.com/icon </metadata>
<g><path d="M850,45H150C72.6,45,10,107.7,10,185v630c0,77.3,62.6,140,140,140h700c77.3,0,140-62.7,140-140V185C990,107.7,927.3,45,850,45z M920,815c0,38.6-31.4,70-70,70H150c-38.6,0-70-31.4-70-70V185c0-38.6,31.4-70,70-70h700c38.6,0,70,31.4,70,70V815z"/><path d="M220,257.9h70v70h-70V257.9z"/><path d="M360,255h420v70H360V255z"/><path d="M220,467.9h70v70h-70V467.9z"/><path d="M360,465h420v70H360V465z"/><path d="M220,677.9h70v70h-70V677.9z"/><path d="M360,675h420v70H360V675z"/></g>
</svg>