<svg width="1920" height="15637" viewBox="0 0 1920 15637" fill="none" xmlns="http://www.w3.org/2000/svg">
<g clip-path="url(#clip0)">
<rect width="1920" height="15637" fill="white"/>
<path fill-rule="evenodd" clip-rule="evenodd" d="M1178.18 7715.96C1242.9 7725.39 1309.58 7732.75 1362.16 7771.62C1413.06 7809.24 1452.06 7865.12 1464.03 7927.25C1475.01 7984.23 1437.04 8036.49 1424.08 8093.05C1412.46 8143.82 1414.9 8196.01 1391.8 8242.7C1363.36 8300.18 1338.5 8375.96 1276.3 8391.68C1213.7 8407.5 1162.98 8338.02 1102.33 8315.86C1047 8295.64 978.228 8308.51 936.099 8267.35C893.341 8225.57 877.238 8159.9 881.726 8100.31C885.872 8045.28 949.007 8012.08 959.409 7957.87C975.147 7875.87 900.136 7774.42 956.159 7712.47C1006.81 7656.45 1103.42 7705.07 1178.18 7715.96Z" fill="#B4C7D6"/>
<path fill-rule="evenodd" clip-rule="evenodd" d="M-112.072 8724.86C32.7631 8728.47 204.431 8701.76 305.86 8811.12C408.526 8921.81 351.783 9107.96 383.613 9259.29C407.355 9372.16 479.068 9471.79 469.046 9586.93C458.778 9704.91 398.134 9809.3 327.721 9901.47C255.411 9996.12 174.62 10102.8 60.8615 10121.2C-51.1072 10139.4 -136.724 9998.02 -249.967 9995.08C-429.442 9990.42 -619.206 10205.5 -768.28 10099.7C-901.235 10005.4 -775.064 9770.33 -801.977 9603.47C-829.939 9430.11 -981.924 9270.94 -928.838 9104.28C-875.939 8938.2 -694.615 8860.46 -542.859 8789.97C-407.313 8727 -260.085 8721.17 -112.072 8724.86Z" fill="#0F4C81"/>
<path fill-rule="evenodd" clip-rule="evenodd" d="M1654.35 7917.94C1780.53 7892.06 1927.07 7787.49 2029.34 7865.81C2127.03 7940.63 2050.68 8103.6 2057.25 8226.51C2062.51 8325.04 2102.2 8425.41 2064.11 8516.43C2026.7 8605.85 1924.97 8642.83 1854.99 8709.88C1774.57 8786.93 1726.73 8901.85 1622.09 8939.93C1507.1 8981.77 1363.05 8995.46 1262.76 8925.37C1162.52 8855.31 1180.22 8702.47 1125.66 8592.98C1075.13 8491.57 925.18 8416.56 954.738 8307.16C986.462 8189.75 1154.1 8181.16 1255.19 8113.57C1316.33 8072.7 1365.43 8020.8 1431.47 7988.43C1502.89 7953.43 1576.44 7933.92 1654.35 7917.94Z" fill="#6A8DC3"/>
<path fill-rule="evenodd" clip-rule="evenodd" d="M22.8602 8004.32C111.795 8009.87 175.594 8092.89 236.21 8159.69C285.71 8214.25 296.434 8291.06 338.28 8351.95C393.416 8432.19 514.717 8474.48 519.83 8572.42C524.777 8667.2 420.813 8726.54 361.652 8799.65C300.961 8874.65 257.758 8972.94 168.461 9006.62C77.5992 9040.89 -23.3804 9011.7 -114.928 8979.4C-203.357 8948.2 -273.262 8886.82 -345.021 8825.44C-430.21 8752.56 -583.115 8700.24 -573.574 8587.05C-563.127 8463.13 -381.839 8442.4 -304.631 8346.31C-254.774 8284.27 -262.844 8189.35 -207.902 8131.98C-145.442 8066.75 -66.228 7998.76 22.8602 8004.32Z" fill="#F4DBB2"/>
<path fill-rule="evenodd" clip-rule="evenodd" d="M1639.89 9216.18C1841.83 9207.88 1813.57 9493.61 1978.88 9580.56C2131.98 9661.09 2451 9544.61 2514.36 9676.15C2580.51 9813.5 2287.85 9904.61 2197.24 10033.9C2144.9 10108.6 2171.06 10206.1 2098.04 10270.4C2024.71 10335 1889.5 10330.3 1800.81 10383.1C1631.41 10483.9 1563.13 10700.4 1347.59 10717C1154.4 10731.8 989.13 10581.2 900.314 10452.3C817.341 10332 887.609 10189.8 891.009 10054.5C893.802 9943.32 831.206 9818.43 918.503 9728.32C1005.55 9638.47 1216.43 9683.88 1324.07 9607.45C1474.95 9500.34 1431.95 9224.72 1639.89 9216.18Z" fill="#B4C7D6"/>
<path fill-rule="evenodd" clip-rule="evenodd" d="M688.349 13080.2C928.481 13106.8 1197.84 12909.5 1397.48 13032.5C1598.22 13156.2 1497.2 13452.8 1608.78 13647.3C1729.19 13857.3 2009.65 13974.3 2069.56 14204.4C2140.61 14477.2 2211.75 14849.7 1966.99 15022.8C1706.38 15207.2 1319.03 14902.9 994.768 14964.9C710.782 15019.2 545.435 15374 256.355 15349.8C-26.9615 15326.2 -203.047 15058.4 -369.943 14851C-525.818 14657.3 -663.584 14440.3 -667.935 14201.2C-672.067 13974.1 -477.101 13795.3 -393.046 13581.1C-298.166 13339.4 -395.637 12979.5 -142.379 12862.2C119.389 12740.9 396.144 13047.9 688.349 13080.2Z" fill="#F4DBB2"/>
<path fill-rule="evenodd" clip-rule="evenodd" d="M1591.62 11475.1C1751.7 11470.6 1878.63 11607.1 1995.85 11716.3C2097.64 11811 2173.26 11927.5 2218.76 12058.9C2261.24 12181.6 2267.28 12311.5 2246.25 12439.6C2225.53 12565.8 2179.29 12685.7 2099.49 12785.6C2017.48 12888.3 1913.03 12973.9 1787.77 13013.6C1661.04 13053.8 1521 13056.3 1397.09 13008.1C1277.91 12961.8 1217.95 12836.4 1120.02 12754.2C998.195 12651.9 807.052 12615.4 751.654 12466.2C695.707 12315.6 756.297 12139.1 840.795 12002.4C920.804 11873.1 1077.18 11825.9 1201.66 11738.5C1332.67 11646.5 1431.6 11479.6 1591.62 11475.1Z" fill="#B4C7D6"/>
<path fill-rule="evenodd" clip-rule="evenodd" d="M263.45 10340.4C383.112 10331.2 456.865 10480.9 563.165 10541C683.835 10609.1 858.348 10590.6 929.01 10716.3C999.038 10840.9 968.833 11017 901.963 11143.6C840.474 11259.9 672.828 11250.2 592.827 11352.6C510.931 11457.4 559.578 11658 448.353 11724.3C342.309 11787.5 216.416 11681.5 99.7418 11646.4C-18.7854 11610.7 -163.522 11619.6 -241.402 11516.7C-319.174 11414 -273.516 11261.8 -290.9 11130.5C-308.265 10999.3 -403.199 10861 -343.539 10745.2C-283.173 10628 -115.616 10655.6 -9.95444 10585.2C92.8513 10516.6 142.921 10349.7 263.45 10340.4Z" fill="#6A8DC3"/>
<path fill-rule="evenodd" clip-rule="evenodd" d="M2232.05 10054.5C2396.48 10043.9 2493.27 10208.5 2632.17 10282.7C2774.72 10358.9 2949.47 10389.5 3058.93 10496.5C3190.89 10625.4 3388.43 10791.2 3310.68 10945.7C3226.29 11113.3 2909.56 11074.3 2720.76 11168.2C2601.57 11227.5 2546.18 11353.2 2414.64 11391.4C2278.45 11430.9 2124.72 11423 1988.95 11380.5C1856.77 11339.2 1774.28 11239.3 1671.85 11159C1554.18 11066.6 1400.57 10998.5 1342.98 10873.7C1279.07 10735.2 1227.85 10554.4 1339.89 10439.8C1456.41 10320.5 1707.56 10403.1 1872.47 10331.9C2021.16 10267.7 2064.06 10065.4 2232.05 10054.5Z" fill="#0F4C81"/>
<path fill-rule="evenodd" clip-rule="evenodd" d="M1178.18 53.9603C1242.9 63.3891 1309.58 70.7529 1362.16 109.619C1413.06 147.245 1452.06 203.122 1464.03 265.254C1475.01 322.228 1437.04 374.492 1424.08 431.049C1412.46 481.822 1414.9 534.013 1391.8 580.701C1363.36 638.175 1338.5 713.959 1276.3 729.68C1213.7 745.502 1162.98 676.025 1102.33 653.861C1047 633.638 978.228 646.51 936.099 605.346C893.341 563.569 877.238 497.904 881.726 438.313C885.872 383.276 949.007 350.076 959.409 295.871C975.147 213.866 900.136 112.415 956.159 50.4663C1006.81 -5.54589 1103.42 43.0688 1178.18 53.9603Z" fill="#B4C7D6"/>
<path fill-rule="evenodd" clip-rule="evenodd" d="M-112.072 1062.86C32.7631 1066.47 204.431 1039.76 305.86 1149.12C408.526 1259.81 351.783 1445.96 383.613 1597.29C407.355 1710.16 479.068 1809.79 469.046 1924.93C458.778 2042.91 398.134 2147.3 327.721 2239.47C255.411 2334.12 174.62 2440.79 60.8615 2459.23C-51.1072 2477.37 -136.724 2336.02 -249.967 2333.08C-429.442 2328.42 -619.206 2543.47 -768.28 2437.72C-901.235 2343.39 -775.064 2108.33 -801.977 1941.47C-829.939 1768.11 -981.924 1608.94 -928.838 1442.28C-875.939 1276.2 -694.615 1198.46 -542.859 1127.97C-407.313 1065 -260.085 1059.17 -112.072 1062.86Z" fill="#0F4C81"/>
<path fill-rule="evenodd" clip-rule="evenodd" d="M1654.35 255.941C1780.53 230.062 1927.07 125.489 2029.34 203.811C2127.03 278.631 2050.68 441.602 2057.25 564.514C2062.51 663.037 2102.2 763.414 2064.11 854.432C2026.7 943.854 1924.97 980.83 1854.99 1047.88C1774.57 1124.93 1726.73 1239.85 1622.09 1277.93C1507.1 1319.77 1363.05 1333.46 1262.76 1263.37C1162.52 1193.31 1180.22 1040.47 1125.66 930.982C1075.13 829.565 925.18 754.564 954.738 645.163C986.462 527.746 1154.1 519.162 1255.19 451.575C1316.33 410.695 1365.43 358.798 1431.47 326.43C1502.89 291.427 1576.44 271.919 1654.35 255.941Z" fill="#6A8DC3"/>
<path fill-rule="evenodd" clip-rule="evenodd" d="M22.8602 342.319C111.795 347.87 175.594 430.886 236.21 497.693C285.71 552.249 296.434 629.06 338.28 689.955C393.416 770.189 514.717 812.483 519.83 910.421C524.777 1005.2 420.813 1064.54 361.652 1137.65C300.961 1212.65 257.758 1310.94 168.461 1344.62C77.5992 1378.89 -23.3804 1349.7 -114.928 1317.4C-203.357 1286.2 -273.262 1224.82 -345.021 1163.44C-430.21 1090.56 -583.115 1038.24 -573.574 925.051C-563.127 801.129 -381.839 780.399 -304.631 684.315C-254.774 622.268 -262.844 527.351 -207.902 469.976C-145.442 404.749 -66.228 336.759 22.8602 342.319Z" fill="#F4DBB2"/>
<path fill-rule="evenodd" clip-rule="evenodd" d="M1639.89 1554.18C1841.83 1545.88 1813.57 1831.61 1978.88 1918.56C2131.98 1999.09 2451 1882.61 2514.36 2014.15C2580.51 2151.5 2287.85 2242.61 2197.24 2371.95C2144.9 2446.64 2171.06 2544.07 2098.04 2608.38C2024.71 2672.96 1889.5 2668.32 1800.81 2721.1C1631.41 2821.92 1563.13 3038.41 1347.59 3054.98C1154.4 3069.84 989.13 2919.22 900.314 2790.34C817.341 2669.95 887.609 2527.85 891.009 2392.49C893.802 2281.32 831.206 2156.43 918.503 2066.32C1005.55 1976.47 1216.43 2021.88 1324.07 1945.45C1474.95 1838.34 1431.95 1562.72 1639.89 1554.18Z" fill="#B4C7D6"/>
<path fill-rule="evenodd" clip-rule="evenodd" d="M688.349 5418.22C928.481 5444.77 1197.84 5247.5 1397.48 5370.5C1598.22 5494.18 1497.2 5790.75 1608.78 5985.31C1729.19 6195.27 2009.65 6312.33 2069.56 6542.38C2140.61 6815.21 2211.75 7187.65 1966.99 7360.84C1706.38 7545.25 1319.03 7240.92 994.768 7302.9C710.782 7357.19 545.435 7711.95 256.355 7687.82C-26.9615 7664.18 -203.047 7396.41 -369.943 7189C-525.818 6995.28 -663.584 6778.31 -667.935 6539.16C-672.067 6312.07 -477.101 6133.29 -393.046 5919.15C-298.166 5677.43 -395.637 5317.52 -142.379 5200.21C119.389 5078.95 396.144 5385.9 688.349 5418.22Z" fill="#F4DBB2"/>
<path fill-rule="evenodd" clip-rule="evenodd" d="M1591.62 3813.11C1751.7 3808.63 1878.63 3945.15 1995.85 4054.28C2097.64 4149.04 2173.26 4265.51 2218.76 4396.95C2261.24 4519.64 2267.28 4649.45 2246.25 4777.57C2225.53 4903.77 2179.29 5023.69 2099.49 5123.61C2017.48 5226.29 1913.03 5311.95 1787.77 5351.63C1661.04 5391.78 1521 5394.28 1397.09 5346.13C1277.91 5299.83 1217.95 5174.4 1120.02 5092.17C998.195 4989.89 807.052 4953.37 751.654 4804.23C695.707 4653.61 756.297 4477.1 840.795 4340.45C920.804 4211.06 1077.18 4163.9 1201.66 4076.47C1332.67 3984.46 1431.6 3817.58 1591.62 3813.11Z" fill="#B4C7D6"/>
<path fill-rule="evenodd" clip-rule="evenodd" d="M263.45 2678.41C383.112 2669.18 456.865 2818.92 563.165 2878.96C683.835 2947.11 858.348 2928.62 929.01 3054.3C999.038 3178.86 968.833 3355 901.963 3481.56C840.474 3597.94 672.828 3588.16 592.827 3690.58C510.931 3795.43 559.578 3996.04 448.353 4062.31C342.309 4125.49 216.416 4019.49 99.7418 3984.38C-18.7854 3948.71 -163.522 3957.58 -241.402 3854.73C-319.174 3752.03 -273.516 3599.82 -290.9 3468.5C-308.265 3337.32 -403.199 3198.99 -343.539 3083.18C-283.173 2966.01 -115.616 2993.62 -9.95444 2923.16C92.8513 2854.6 142.921 2687.7 263.45 2678.41Z" fill="#6A8DC3"/>
<path fill-rule="evenodd" clip-rule="evenodd" d="M2232.05 2392.51C2396.48 2381.87 2493.27 2546.5 2632.17 2620.74C2774.72 2696.93 2949.47 2727.52 3058.93 2834.47C3190.89 2963.4 3388.43 3129.24 3310.68 3283.69C3226.29 3451.31 2909.56 3412.29 2720.76 3506.2C2601.57 3565.49 2546.18 3691.23 2414.64 3729.39C2278.45 3768.91 2124.72 3761.03 1988.95 3718.55C1856.77 3677.18 1774.28 3577.34 1671.85 3496.97C1554.18 3404.64 1400.57 3336.47 1342.98 3211.69C1279.07 3073.23 1227.85 2892.4 1339.89 2777.77C1456.41 2658.54 1707.56 2741.13 1872.47 2669.92C2021.16 2605.71 2064.06 2403.38 2232.05 2392.51Z" fill="#0F4C81"/>
</g>
<defs>
<clipPath id="clip0">
<rect width="1920" height="15637" fill="white"/>
</clipPath>
</defs>
</svg>
