<svg width="40" height="40" viewBox="0 0 40 40" fill="none" xmlns="http://www.w3.org/2000/svg">
<g id="ic_call_24px">
<path id="icon/communication/call_24px" d="M32.0364 25.4469L27.8031 24.9635C26.7864 24.8469 25.7864 25.1969 25.0697 25.9135L22.0031 28.9802C17.2864 26.5802 13.4197 22.7302 11.0197 17.9969L14.1031 14.9135C14.8197 14.1969 15.1697 13.1969 15.0531 12.1802L14.5697 7.98021C14.3697 6.29688 12.9531 5.03021 11.2531 5.03021H8.36973C6.4864 5.03021 4.91973 6.59688 5.0364 8.48021C5.91973 22.7135 17.3031 34.0802 31.5197 34.9635C33.4031 35.0802 34.9697 33.5135 34.9697 31.6302V28.7469C34.9864 27.0635 33.7197 25.6469 32.0364 25.4469Z" fill="#6A8DC3"/>
</g>
</svg>
